# xmcd
#
# Track frame offsets:
#  150
#  20804
#  40338
#  59039
#  76260
#  94827
#  118547
#  143303
#  158818
#  176702
#  199041
#  211799
#
# Disc length: 3153 seconds
#
# Revision: 1
# Processed by: cddbd v1.5.1PL2 Copyright (c) Steve Scherf et al.
# Submitted via: Collectorz.com_Music_Collector 6.11
#
DISCID=9f0c4f0c
DTITLE=Bill Perry - Don't Know Notbin' About Love
DYEAR=2006
DGENRE=Blues Rock
TTITLE0=Let Me Love You
TTITLE1=My Baby Loves To Dance
TTITLE2=D. Bartholomew - Hello Josephine
TTITLE3=I Don't Know Nothin' Bout Love
TTITLE4=B. Strong - N. Whitfield - Ball Of Confusion
TTITLE5=Leavin' Home
TTITLE6=Down In New Orleans
TTITLE7=J. Ragovy - She's A Burglar
TTITLE8=Accuse Me Of Lyin'
TTITLE9=Can't Afford To Die
TTITLE10=Waitin' For My Luck To Change
TTITLE11=Jimi Hendrix - Are You Experienced
EXTD=
EXTT0=
EXTT1=
EXTT2=
EXTT3=
EXTT4=
EXTT5=
EXTT6=
EXTT7=
EXTT8=
EXTT9=
EXTT10=
EXTT11=
PLAYORDER=
